<?xml version="1.0" encoding="UTF-8" standalone="no"?>
<svg
   viewBox="0 0 512 512"
   version="1.1"
   id="svg1"
   sodipodi:docname="google-scholar-brands-solid-full.svg"
   width="512"
   height="512"
   inkscape:version="1.4.4 (dcaf3e7d9e, 2026-05-05)"
   xmlns:inkscape="http://www.inkscape.org/namespaces/inkscape"
   xmlns:sodipodi="http://sodipodi.sourceforge.net/DTD/sodipodi-0.dtd"
   xmlns="http://www.w3.org/2000/svg"
   xmlns:svg="http://www.w3.org/2000/svg">
  <defs
     id="defs1" />
  <sodipodi:namedview
     id="namedview1"
     pagecolor="#ffffff"
     bordercolor="#666666"
     borderopacity="1.0"
     inkscape:showpageshadow="2"
     inkscape:pageopacity="0.0"
     inkscape:pagecheckerboard="0"
     inkscape:deskcolor="#d1d1d1"
     inkscape:zoom="1.325"
     inkscape:cx="255.4717"
     inkscape:cy="255.84906"
     inkscape:window-width="1859"
     inkscape:window-height="1053"
     inkscape:window-x="61"
     inkscape:window-y="27"
     inkscape:window-maximized="1"
     inkscape:current-layer="svg1" />
  <!--!Font Awesome Free 7.2.0 by @fontawesome - https://fontawesome.com License - https://fontawesome.com/license/free Copyright 2026 Fonticons, Inc.-->
  <path
     d="m 390.9,298.5 c 0,0 0,0.1 0.1,0.1 9.2,19.4 14.4,41.1 14.4,64 C 405.3,445.1 338.5,512 256,512 173.5,512 106.7,445.1 106.7,362.7 c 0,-22.9 5.2,-44.6 14.4,-64 1.7,-3.6 3.6,-7.2 5.6,-10.7 4.4,-7.6 9.4,-14.7 15,-21.3 27.4,-32.6 68.5,-53.3 114.4,-53.3 33.6,0 64.6,11.1 89.6,29.9 9.1,6.9 17.4,14.7 24.8,23.5 5.6,6.6 10.6,13.8 15,21.3 2,3.4 3.8,7 5.5,10.5 z m 26.4,-18.8 c -30.1,-58.4 -91,-98.4 -161.3,-98.4 -70.3,0 -131.2,40 -161.3,98.4 L 0,202.7 256,0 512,202.7 417.3,279.8 Z"
     id="path1" />
</svg>
